<svg width="1791.9999999999998" height="1791.9999999999998" xmlns="http://www.w3.org/2000/svg">

 <g>
  <title>background</title>
  <rect fill="none" id="canvas_background" height="402" width="582" y="-1" x="-1"/>
 </g>
 <g>
  <title>Layer 1</title>
  <path fill="#ffffff" id="svg_1" d="m991,1024l64,-256l-254,0l-64,256l254,0zm768,-504l-56,224q-7,24 -31,24l-327,0l-64,256l311,0q15,0 25,12q10,14 6,28l-56,224q-5,24 -31,24l-327,0l-81,328q-7,24 -31,24l-224,0q-16,0 -26,-12q-9,-12 -6,-28l78,-312l-254,0l-81,328q-7,24 -31,24l-225,0q-15,0 -25,-12q-9,-12 -6,-28l78,-312l-311,0q-15,0 -25,-12q-9,-12 -6,-28l56,-224q7,-24 31,-24l327,0l64,-256l-311,0q-15,0 -25,-12q-10,-14 -6,-28l56,-224q5,-24 31,-24l327,0l81,-328q7,-24 32,-24l224,0q15,0 25,12q9,12 6,28l-78,312l254,0l81,-328q7,-24 32,-24l224,0q15,0 25,12q9,12 6,28l-78,312l311,0q15,0 25,12q9,12 6,28z"/>
 </g>
</svg>